%TF.GenerationSoftware,KiCad,Pcbnew,5.1.10*%
%TF.CreationDate,2021-12-13T06:59:12-07:00*%
%TF.ProjectId,L0004-Photogate,4c303030-342d-4506-986f-746f67617465,rev?*%
%TF.SameCoordinates,Original*%
%TF.FileFunction,Paste,Top*%
%TF.FilePolarity,Positive*%
%FSLAX46Y46*%
G04 Gerber Fmt 4.6, Leading zero omitted, Abs format (unit mm)*
G04 Created by KiCad (PCBNEW 5.1.10) date 2021-12-13 06:59:12*
%MOMM*%
%LPD*%
G01*
G04 APERTURE LIST*
%ADD10C,0.010000*%
%ADD11R,1.295400X0.965200*%
%ADD12R,1.020000X0.940000*%
%ADD13R,0.940000X1.020000*%
%ADD14R,2.150000X0.950000*%
%ADD15R,2.150000X3.250000*%
%ADD16R,1.200000X0.900000*%
%ADD17R,1.270000X1.778000*%
%ADD18C,1.524000*%
G04 APERTURE END LIST*
D10*
%TO.C,Q1*%
G36*
X134050000Y-77540000D02*
G01*
X134050000Y-78290000D01*
X133850000Y-78290000D01*
X133850000Y-78090000D01*
X132850000Y-78090000D01*
X132850000Y-78290000D01*
X132650000Y-78290000D01*
X132650000Y-77540000D01*
X134050000Y-77540000D01*
G37*
X134050000Y-77540000D02*
X134050000Y-78290000D01*
X133850000Y-78290000D01*
X133850000Y-78090000D01*
X132850000Y-78090000D01*
X132850000Y-78290000D01*
X132650000Y-78290000D01*
X132650000Y-77540000D01*
X134050000Y-77540000D01*
G36*
X132650000Y-81640000D02*
G01*
X132650000Y-80890000D01*
X132850000Y-80890000D01*
X132850000Y-81090000D01*
X133850000Y-81090000D01*
X133850000Y-80890000D01*
X134050000Y-80890000D01*
X134050000Y-81640000D01*
X132650000Y-81640000D01*
G37*
X132650000Y-81640000D02*
X132650000Y-80890000D01*
X132850000Y-80890000D01*
X132850000Y-81090000D01*
X133850000Y-81090000D01*
X133850000Y-80890000D01*
X134050000Y-80890000D01*
X134050000Y-81640000D01*
X132650000Y-81640000D01*
%TD*%
D11*
%TO.C,D1*%
X109220000Y-70866000D03*
X109220000Y-73914000D03*
%TD*%
D12*
%TO.C,R3*%
X132080000Y-95730000D03*
X132080000Y-97310000D03*
%TD*%
D13*
%TO.C,R2*%
X113408520Y-77683360D03*
X111828520Y-77683360D03*
%TD*%
D12*
%TO.C,R1*%
X109220000Y-80490000D03*
X109220000Y-82070000D03*
%TD*%
D14*
%TO.C,U1*%
X101240000Y-90410000D03*
X101240000Y-92710000D03*
X101240000Y-95010000D03*
D15*
X107040000Y-92710000D03*
%TD*%
D16*
%TO.C,D2*%
X118018560Y-77940000D03*
X118018560Y-81240000D03*
%TD*%
D17*
%TO.C,C1*%
X100279200Y-99060000D03*
X102920800Y-99060000D03*
%TD*%
%TO.C,C2*%
X100279200Y-86360000D03*
X102920800Y-86360000D03*
%TD*%
D18*
%TO.C,TP1*%
X132080000Y-101600000D03*
%TD*%
%TO.C,TP2*%
X112649000Y-87884000D03*
%TD*%
%TO.C,TP3*%
X113284000Y-97282000D03*
%TD*%
%TO.C,TP4*%
X134620000Y-92710000D03*
%TD*%
M02*
